<mxfile host="app.diagrams.net" modified="2023-03-07T09:56:42.756Z" agent="5.0 (Windows NT 10.0; Win64; x64) AppleWebKit/537.36 (KHTML, like Gecko) Chrome/110.0.0.0 Safari/537.36" etag="YpnziZmDDxh0b_q8tpcb" version="21.0.2" type="github">
  <diagram name="Strona-1" id="FjZhICts-X5SlbuEQryv">
    <mxGraphModel dx="1434" dy="792" grid="1" gridSize="10" guides="1" tooltips="1" connect="1" arrows="1" fold="1" page="1" pageScale="1" pageWidth="827" pageHeight="1169" math="0" shadow="0">
      <root>
        <mxCell id="0" />
        <mxCell id="1" parent="0" />
        <mxCell id="s5MU04aMFb_AqmO_KyF_-1" value="" style="whiteSpace=wrap;html=1;aspect=fixed;" parent="1" vertex="1">
          <mxGeometry x="40" y="40" width="80" height="80" as="geometry" />
        </mxCell>
        <mxCell id="s5MU04aMFb_AqmO_KyF_-3" value="" style="whiteSpace=wrap;html=1;aspect=fixed;" parent="1" vertex="1">
          <mxGeometry x="40" y="160" width="80" height="80" as="geometry" />
        </mxCell>
        <mxCell id="s5MU04aMFb_AqmO_KyF_-4" value="" style="whiteSpace=wrap;html=1;aspect=fixed;" parent="1" vertex="1">
          <mxGeometry x="160" y="40" width="80" height="80" as="geometry" />
        </mxCell>
        <mxCell id="s5MU04aMFb_AqmO_KyF_-5" value="" style="whiteSpace=wrap;html=1;aspect=fixed;" parent="1" vertex="1">
          <mxGeometry x="160" y="160" width="80" height="80" as="geometry" />
        </mxCell>
        <mxCell id="s5MU04aMFb_AqmO_KyF_-6" value="" style="whiteSpace=wrap;html=1;aspect=fixed;" parent="1" vertex="1">
          <mxGeometry x="40" y="280" width="80" height="80" as="geometry" />
        </mxCell>
        <mxCell id="s5MU04aMFb_AqmO_KyF_-7" value="" style="whiteSpace=wrap;html=1;aspect=fixed;" parent="1" vertex="1">
          <mxGeometry x="160" y="280" width="80" height="80" as="geometry" />
        </mxCell>
        <mxCell id="s5MU04aMFb_AqmO_KyF_-8" value="" style="whiteSpace=wrap;html=1;aspect=fixed;" parent="1" vertex="1">
          <mxGeometry x="560" y="40" width="80" height="80" as="geometry" />
        </mxCell>
        <mxCell id="s5MU04aMFb_AqmO_KyF_-9" value="" style="whiteSpace=wrap;html=1;aspect=fixed;" parent="1" vertex="1">
          <mxGeometry x="560" y="160" width="80" height="80" as="geometry" />
        </mxCell>
        <mxCell id="s5MU04aMFb_AqmO_KyF_-10" value="" style="whiteSpace=wrap;html=1;aspect=fixed;" parent="1" vertex="1">
          <mxGeometry x="560" y="280" width="80" height="80" as="geometry" />
        </mxCell>
        <mxCell id="s5MU04aMFb_AqmO_KyF_-11" value="" style="whiteSpace=wrap;html=1;aspect=fixed;" parent="1" vertex="1">
          <mxGeometry x="680" y="40" width="80" height="80" as="geometry" />
        </mxCell>
        <mxCell id="s5MU04aMFb_AqmO_KyF_-12" value="" style="whiteSpace=wrap;html=1;aspect=fixed;" parent="1" vertex="1">
          <mxGeometry x="680" y="160" width="80" height="80" as="geometry" />
        </mxCell>
        <mxCell id="s5MU04aMFb_AqmO_KyF_-13" value="" style="whiteSpace=wrap;html=1;aspect=fixed;" parent="1" vertex="1">
          <mxGeometry x="680" y="280" width="80" height="80" as="geometry" />
        </mxCell>
        <mxCell id="s5MU04aMFb_AqmO_KyF_-14" value="" style="whiteSpace=wrap;html=1;aspect=fixed;" parent="1" vertex="1">
          <mxGeometry x="40" y="400" width="80" height="80" as="geometry" />
        </mxCell>
        <mxCell id="s5MU04aMFb_AqmO_KyF_-15" value="" style="whiteSpace=wrap;html=1;aspect=fixed;" parent="1" vertex="1">
          <mxGeometry x="160" y="400" width="80" height="80" as="geometry" />
        </mxCell>
        <mxCell id="s5MU04aMFb_AqmO_KyF_-16" value="" style="whiteSpace=wrap;html=1;aspect=fixed;" parent="1" vertex="1">
          <mxGeometry x="680" y="400" width="80" height="80" as="geometry" />
        </mxCell>
        <mxCell id="s5MU04aMFb_AqmO_KyF_-17" value="" style="whiteSpace=wrap;html=1;aspect=fixed;" parent="1" vertex="1">
          <mxGeometry x="560" y="400" width="80" height="80" as="geometry" />
        </mxCell>
        <mxCell id="s5MU04aMFb_AqmO_KyF_-18" value="" style="whiteSpace=wrap;html=1;aspect=fixed;" parent="1" vertex="1">
          <mxGeometry x="40" y="520" width="80" height="80" as="geometry" />
        </mxCell>
        <mxCell id="s5MU04aMFb_AqmO_KyF_-19" value="" style="whiteSpace=wrap;html=1;aspect=fixed;" parent="1" vertex="1">
          <mxGeometry x="160" y="520" width="80" height="80" as="geometry" />
        </mxCell>
        <mxCell id="s5MU04aMFb_AqmO_KyF_-20" value="" style="whiteSpace=wrap;html=1;aspect=fixed;" parent="1" vertex="1">
          <mxGeometry x="560" y="520" width="80" height="80" as="geometry" />
        </mxCell>
        <mxCell id="s5MU04aMFb_AqmO_KyF_-21" value="" style="whiteSpace=wrap;html=1;aspect=fixed;" parent="1" vertex="1">
          <mxGeometry x="680" y="520" width="80" height="80" as="geometry" />
        </mxCell>
        <mxCell id="s5MU04aMFb_AqmO_KyF_-22" value="" style="rounded=0;whiteSpace=wrap;html=1;" parent="1" vertex="1">
          <mxGeometry x="520" y="680" width="280" height="180" as="geometry" />
        </mxCell>
        <mxCell id="s5MU04aMFb_AqmO_KyF_-23" value="" style="rounded=0;whiteSpace=wrap;html=1;" parent="1" vertex="1">
          <mxGeometry x="40" y="680" width="160" height="80" as="geometry" />
        </mxCell>
        <mxCell id="s5MU04aMFb_AqmO_KyF_-24" value="" style="rounded=0;whiteSpace=wrap;html=1;" parent="1" vertex="1">
          <mxGeometry x="40" y="800" width="160" height="80" as="geometry" />
        </mxCell>
        <mxCell id="s5MU04aMFb_AqmO_KyF_-25" value="" style="rounded=0;whiteSpace=wrap;html=1;" parent="1" vertex="1">
          <mxGeometry x="40" y="920" width="160" height="80" as="geometry" />
        </mxCell>
        <mxCell id="s5MU04aMFb_AqmO_KyF_-26" value="" style="rounded=0;whiteSpace=wrap;html=1;" parent="1" vertex="1">
          <mxGeometry x="680" y="920" width="120" height="200" as="geometry" />
        </mxCell>
        <mxCell id="s5MU04aMFb_AqmO_KyF_-27" value="" style="whiteSpace=wrap;html=1;aspect=fixed;" parent="1" vertex="1">
          <mxGeometry x="40" y="1040" width="120" height="120" as="geometry" />
        </mxCell>
        <mxCell id="s5MU04aMFb_AqmO_KyF_-28" value="" style="rounded=0;whiteSpace=wrap;html=1;" parent="1" vertex="1">
          <mxGeometry x="240" y="1040" width="240" height="120" as="geometry" />
        </mxCell>
        <mxCell id="4O-tMVkyEJ5yS-pgDYUd-14" value="A1" style="text;strokeColor=none;fillColor=none;html=1;fontSize=24;fontStyle=1;verticalAlign=middle;align=center;" vertex="1" parent="1">
          <mxGeometry x="30" y="60" width="100" height="40" as="geometry" />
        </mxCell>
        <mxCell id="4O-tMVkyEJ5yS-pgDYUd-15" value="A2" style="text;strokeColor=none;fillColor=none;html=1;fontSize=24;fontStyle=1;verticalAlign=middle;align=center;" vertex="1" parent="1">
          <mxGeometry x="150" y="60" width="100" height="40" as="geometry" />
        </mxCell>
        <mxCell id="4O-tMVkyEJ5yS-pgDYUd-16" value="A3" style="text;strokeColor=none;fillColor=none;html=1;fontSize=24;fontStyle=1;verticalAlign=middle;align=center;" vertex="1" parent="1">
          <mxGeometry x="30" y="180" width="100" height="40" as="geometry" />
        </mxCell>
        <mxCell id="4O-tMVkyEJ5yS-pgDYUd-17" value="A4" style="text;strokeColor=none;fillColor=none;html=1;fontSize=24;fontStyle=1;verticalAlign=middle;align=center;" vertex="1" parent="1">
          <mxGeometry x="150" y="180" width="100" height="40" as="geometry" />
        </mxCell>
        <mxCell id="4O-tMVkyEJ5yS-pgDYUd-18" value="A5" style="text;strokeColor=none;fillColor=none;html=1;fontSize=24;fontStyle=1;verticalAlign=middle;align=center;" vertex="1" parent="1">
          <mxGeometry x="30" y="300" width="100" height="40" as="geometry" />
        </mxCell>
        <mxCell id="4O-tMVkyEJ5yS-pgDYUd-19" value="A6" style="text;strokeColor=none;fillColor=none;html=1;fontSize=24;fontStyle=1;verticalAlign=middle;align=center;" vertex="1" parent="1">
          <mxGeometry x="150" y="300" width="100" height="40" as="geometry" />
        </mxCell>
        <mxCell id="4O-tMVkyEJ5yS-pgDYUd-20" value="A7" style="text;strokeColor=none;fillColor=none;html=1;fontSize=24;fontStyle=1;verticalAlign=middle;align=center;" vertex="1" parent="1">
          <mxGeometry x="30" y="420" width="100" height="40" as="geometry" />
        </mxCell>
        <mxCell id="4O-tMVkyEJ5yS-pgDYUd-21" value="A8" style="text;strokeColor=none;fillColor=none;html=1;fontSize=24;fontStyle=1;verticalAlign=middle;align=center;" vertex="1" parent="1">
          <mxGeometry x="150" y="420" width="100" height="40" as="geometry" />
        </mxCell>
        <mxCell id="4O-tMVkyEJ5yS-pgDYUd-22" value="A9" style="text;strokeColor=none;fillColor=none;html=1;fontSize=24;fontStyle=1;verticalAlign=middle;align=center;" vertex="1" parent="1">
          <mxGeometry x="30" y="540" width="100" height="40" as="geometry" />
        </mxCell>
        <mxCell id="4O-tMVkyEJ5yS-pgDYUd-23" value="A10" style="text;strokeColor=none;fillColor=none;html=1;fontSize=24;fontStyle=1;verticalAlign=middle;align=center;" vertex="1" parent="1">
          <mxGeometry x="150" y="540" width="100" height="40" as="geometry" />
        </mxCell>
        <mxCell id="4O-tMVkyEJ5yS-pgDYUd-24" value="A11" style="text;strokeColor=none;fillColor=none;html=1;fontSize=24;fontStyle=1;verticalAlign=middle;align=center;" vertex="1" parent="1">
          <mxGeometry x="550" y="60" width="100" height="40" as="geometry" />
        </mxCell>
        <mxCell id="4O-tMVkyEJ5yS-pgDYUd-25" value="A12" style="text;strokeColor=none;fillColor=none;html=1;fontSize=24;fontStyle=1;verticalAlign=middle;align=center;" vertex="1" parent="1">
          <mxGeometry x="670" y="60" width="100" height="40" as="geometry" />
        </mxCell>
        <mxCell id="4O-tMVkyEJ5yS-pgDYUd-26" value="A13" style="text;strokeColor=none;fillColor=none;html=1;fontSize=24;fontStyle=1;verticalAlign=middle;align=center;" vertex="1" parent="1">
          <mxGeometry x="550" y="180" width="100" height="40" as="geometry" />
        </mxCell>
        <mxCell id="4O-tMVkyEJ5yS-pgDYUd-27" value="A14" style="text;strokeColor=none;fillColor=none;html=1;fontSize=24;fontStyle=1;verticalAlign=middle;align=center;" vertex="1" parent="1">
          <mxGeometry x="670" y="180" width="100" height="40" as="geometry" />
        </mxCell>
        <mxCell id="4O-tMVkyEJ5yS-pgDYUd-28" value="A15" style="text;strokeColor=none;fillColor=none;html=1;fontSize=24;fontStyle=1;verticalAlign=middle;align=center;" vertex="1" parent="1">
          <mxGeometry x="550" y="300" width="100" height="40" as="geometry" />
        </mxCell>
        <mxCell id="4O-tMVkyEJ5yS-pgDYUd-29" value="A16" style="text;strokeColor=none;fillColor=none;html=1;fontSize=24;fontStyle=1;verticalAlign=middle;align=center;" vertex="1" parent="1">
          <mxGeometry x="670" y="300" width="100" height="40" as="geometry" />
        </mxCell>
        <mxCell id="4O-tMVkyEJ5yS-pgDYUd-30" value="A17" style="text;strokeColor=none;fillColor=none;html=1;fontSize=24;fontStyle=1;verticalAlign=middle;align=center;" vertex="1" parent="1">
          <mxGeometry x="550" y="420" width="100" height="40" as="geometry" />
        </mxCell>
        <mxCell id="4O-tMVkyEJ5yS-pgDYUd-31" value="A18" style="text;strokeColor=none;fillColor=none;html=1;fontSize=24;fontStyle=1;verticalAlign=middle;align=center;" vertex="1" parent="1">
          <mxGeometry x="670" y="420" width="100" height="40" as="geometry" />
        </mxCell>
        <mxCell id="4O-tMVkyEJ5yS-pgDYUd-32" value="A19" style="text;strokeColor=none;fillColor=none;html=1;fontSize=24;fontStyle=1;verticalAlign=middle;align=center;" vertex="1" parent="1">
          <mxGeometry x="550" y="540" width="100" height="40" as="geometry" />
        </mxCell>
        <mxCell id="4O-tMVkyEJ5yS-pgDYUd-33" value="A20" style="text;strokeColor=none;fillColor=none;html=1;fontSize=24;fontStyle=1;verticalAlign=middle;align=center;" vertex="1" parent="1">
          <mxGeometry x="670" y="540" width="100" height="40" as="geometry" />
        </mxCell>
        <mxCell id="4O-tMVkyEJ5yS-pgDYUd-34" value="B1" style="text;strokeColor=none;fillColor=none;html=1;fontSize=24;fontStyle=1;verticalAlign=middle;align=center;" vertex="1" parent="1">
          <mxGeometry x="70" y="700" width="100" height="40" as="geometry" />
        </mxCell>
        <mxCell id="4O-tMVkyEJ5yS-pgDYUd-35" value="E" style="text;strokeColor=none;fillColor=none;html=1;fontSize=24;fontStyle=1;verticalAlign=middle;align=center;" vertex="1" parent="1">
          <mxGeometry x="610" y="750" width="100" height="40" as="geometry" />
        </mxCell>
        <mxCell id="4O-tMVkyEJ5yS-pgDYUd-36" value="B2" style="text;strokeColor=none;fillColor=none;html=1;fontSize=24;fontStyle=1;verticalAlign=middle;align=center;" vertex="1" parent="1">
          <mxGeometry x="70" y="820" width="100" height="40" as="geometry" />
        </mxCell>
        <mxCell id="4O-tMVkyEJ5yS-pgDYUd-37" value="B3" style="text;strokeColor=none;fillColor=none;html=1;fontSize=24;fontStyle=1;verticalAlign=middle;align=center;" vertex="1" parent="1">
          <mxGeometry x="70" y="940" width="100" height="40" as="geometry" />
        </mxCell>
        <mxCell id="4O-tMVkyEJ5yS-pgDYUd-38" value="C" style="text;strokeColor=none;fillColor=none;html=1;fontSize=24;fontStyle=1;verticalAlign=middle;align=center;" vertex="1" parent="1">
          <mxGeometry x="50" y="1080" width="100" height="40" as="geometry" />
        </mxCell>
        <mxCell id="4O-tMVkyEJ5yS-pgDYUd-39" value="D" style="text;strokeColor=none;fillColor=none;html=1;fontSize=24;fontStyle=1;verticalAlign=middle;align=center;" vertex="1" parent="1">
          <mxGeometry x="310" y="1080" width="100" height="40" as="geometry" />
        </mxCell>
        <mxCell id="4O-tMVkyEJ5yS-pgDYUd-40" value="F" style="text;strokeColor=none;fillColor=none;html=1;fontSize=24;fontStyle=1;verticalAlign=middle;align=center;" vertex="1" parent="1">
          <mxGeometry x="690" y="1010" width="100" height="40" as="geometry" />
        </mxCell>
        <mxCell id="4O-tMVkyEJ5yS-pgDYUd-42" value="Punkt zasilania" style="text;strokeColor=none;fillColor=none;html=1;fontSize=24;fontStyle=1;verticalAlign=middle;align=center;" vertex="1" parent="1">
          <mxGeometry x="540" y="1120" width="100" height="40" as="geometry" />
        </mxCell>
        <mxCell id="4O-tMVkyEJ5yS-pgDYUd-44" value="" style="endArrow=none;html=1;rounded=0;" edge="1" parent="1">
          <mxGeometry width="50" height="50" relative="1" as="geometry">
            <mxPoint x="80" y="640" as="sourcePoint" />
            <mxPoint x="720" y="640" as="targetPoint" />
          </mxGeometry>
        </mxCell>
        <mxCell id="4O-tMVkyEJ5yS-pgDYUd-45" value="" style="endArrow=classic;html=1;rounded=0;entryX=0.5;entryY=1;entryDx=0;entryDy=0;" edge="1" parent="1" target="s5MU04aMFb_AqmO_KyF_-18">
          <mxGeometry width="50" height="50" relative="1" as="geometry">
            <mxPoint x="80" y="640" as="sourcePoint" />
            <mxPoint x="80" y="630" as="targetPoint" />
          </mxGeometry>
        </mxCell>
        <mxCell id="4O-tMVkyEJ5yS-pgDYUd-47" value="" style="endArrow=none;html=1;rounded=0;" edge="1" parent="1">
          <mxGeometry width="50" height="50" relative="1" as="geometry">
            <mxPoint x="400" y="960" as="sourcePoint" />
            <mxPoint x="400" y="140" as="targetPoint" />
          </mxGeometry>
        </mxCell>
        <mxCell id="4O-tMVkyEJ5yS-pgDYUd-48" value="" style="endArrow=none;html=1;rounded=0;" edge="1" parent="1">
          <mxGeometry width="50" height="50" relative="1" as="geometry">
            <mxPoint x="80" y="500" as="sourcePoint" />
            <mxPoint x="720" y="500" as="targetPoint" />
          </mxGeometry>
        </mxCell>
        <mxCell id="4O-tMVkyEJ5yS-pgDYUd-49" value="" style="endArrow=none;html=1;rounded=0;" edge="1" parent="1">
          <mxGeometry width="50" height="50" relative="1" as="geometry">
            <mxPoint x="80" y="380" as="sourcePoint" />
            <mxPoint x="720" y="380" as="targetPoint" />
          </mxGeometry>
        </mxCell>
        <mxCell id="4O-tMVkyEJ5yS-pgDYUd-50" value="" style="endArrow=none;html=1;rounded=0;" edge="1" parent="1">
          <mxGeometry width="50" height="50" relative="1" as="geometry">
            <mxPoint x="80" y="260" as="sourcePoint" />
            <mxPoint x="720" y="260" as="targetPoint" />
          </mxGeometry>
        </mxCell>
        <mxCell id="4O-tMVkyEJ5yS-pgDYUd-51" value="" style="endArrow=none;html=1;rounded=0;" edge="1" parent="1">
          <mxGeometry width="50" height="50" relative="1" as="geometry">
            <mxPoint x="80" y="140" as="sourcePoint" />
            <mxPoint x="720" y="140" as="targetPoint" />
          </mxGeometry>
        </mxCell>
        <mxCell id="4O-tMVkyEJ5yS-pgDYUd-52" value="" style="endArrow=none;html=1;rounded=0;" edge="1" parent="1">
          <mxGeometry width="50" height="50" relative="1" as="geometry">
            <mxPoint x="100" y="1010" as="sourcePoint" />
            <mxPoint x="600" y="1010" as="targetPoint" />
          </mxGeometry>
        </mxCell>
        <mxCell id="4O-tMVkyEJ5yS-pgDYUd-55" value="" style="endArrow=classic;html=1;rounded=0;exitX=1;exitY=0.5;exitDx=0;exitDy=0;" edge="1" parent="1" source="s5MU04aMFb_AqmO_KyF_-23">
          <mxGeometry width="50" height="50" relative="1" as="geometry">
            <mxPoint x="390" y="900" as="sourcePoint" />
            <mxPoint x="280" y="720" as="targetPoint" />
          </mxGeometry>
        </mxCell>
        <mxCell id="4O-tMVkyEJ5yS-pgDYUd-56" value="" style="endArrow=classic;html=1;rounded=0;exitX=1;exitY=0.5;exitDx=0;exitDy=0;" edge="1" parent="1">
          <mxGeometry width="50" height="50" relative="1" as="geometry">
            <mxPoint x="200" y="839.5" as="sourcePoint" />
            <mxPoint x="280" y="839.5" as="targetPoint" />
          </mxGeometry>
        </mxCell>
        <mxCell id="4O-tMVkyEJ5yS-pgDYUd-57" value="" style="endArrow=classic;html=1;rounded=0;exitX=1;exitY=0.5;exitDx=0;exitDy=0;" edge="1" parent="1">
          <mxGeometry width="50" height="50" relative="1" as="geometry">
            <mxPoint x="200" y="959.5" as="sourcePoint" />
            <mxPoint x="280" y="959.5" as="targetPoint" />
          </mxGeometry>
        </mxCell>
        <mxCell id="4O-tMVkyEJ5yS-pgDYUd-58" value="" style="endArrow=classic;html=1;rounded=0;" edge="1" parent="1">
          <mxGeometry width="50" height="50" relative="1" as="geometry">
            <mxPoint x="400" y="720" as="sourcePoint" />
            <mxPoint x="280" y="720" as="targetPoint" />
          </mxGeometry>
        </mxCell>
        <mxCell id="4O-tMVkyEJ5yS-pgDYUd-60" value="" style="endArrow=classic;html=1;rounded=0;" edge="1" parent="1">
          <mxGeometry width="50" height="50" relative="1" as="geometry">
            <mxPoint x="400" y="839.5" as="sourcePoint" />
            <mxPoint x="280" y="839.5" as="targetPoint" />
          </mxGeometry>
        </mxCell>
        <mxCell id="4O-tMVkyEJ5yS-pgDYUd-61" value="" style="endArrow=classic;html=1;rounded=0;" edge="1" parent="1">
          <mxGeometry width="50" height="50" relative="1" as="geometry">
            <mxPoint x="400" y="959.5" as="sourcePoint" />
            <mxPoint x="280" y="959.5" as="targetPoint" />
          </mxGeometry>
        </mxCell>
        <mxCell id="4O-tMVkyEJ5yS-pgDYUd-62" value="" style="endArrow=classic;html=1;rounded=0;" edge="1" parent="1">
          <mxGeometry width="50" height="50" relative="1" as="geometry">
            <mxPoint x="400" y="960" as="sourcePoint" />
            <mxPoint x="400" y="990" as="targetPoint" />
          </mxGeometry>
        </mxCell>
        <mxCell id="4O-tMVkyEJ5yS-pgDYUd-63" value="" style="endArrow=classic;html=1;rounded=0;" edge="1" parent="1">
          <mxGeometry width="50" height="50" relative="1" as="geometry">
            <mxPoint x="400" y="1010" as="sourcePoint" />
            <mxPoint x="400" y="990" as="targetPoint" />
          </mxGeometry>
        </mxCell>
        <mxCell id="4O-tMVkyEJ5yS-pgDYUd-64" value="" style="endArrow=classic;html=1;rounded=0;exitX=-0.004;exitY=0.456;exitDx=0;exitDy=0;exitPerimeter=0;" edge="1" parent="1" source="s5MU04aMFb_AqmO_KyF_-22">
          <mxGeometry width="50" height="50" relative="1" as="geometry">
            <mxPoint x="390" y="900" as="sourcePoint" />
            <mxPoint x="460" y="762" as="targetPoint" />
          </mxGeometry>
        </mxCell>
        <mxCell id="4O-tMVkyEJ5yS-pgDYUd-65" value="" style="endArrow=classic;html=1;rounded=0;" edge="1" parent="1">
          <mxGeometry width="50" height="50" relative="1" as="geometry">
            <mxPoint x="400" y="760" as="sourcePoint" />
            <mxPoint x="460" y="760" as="targetPoint" />
          </mxGeometry>
        </mxCell>
        <mxCell id="4O-tMVkyEJ5yS-pgDYUd-67" value="" style="endArrow=classic;html=1;rounded=0;" edge="1" parent="1">
          <mxGeometry width="50" height="50" relative="1" as="geometry">
            <mxPoint x="360" y="1010" as="sourcePoint" />
            <mxPoint x="360" y="1030" as="targetPoint" />
          </mxGeometry>
        </mxCell>
        <mxCell id="4O-tMVkyEJ5yS-pgDYUd-68" value="" style="endArrow=classic;html=1;rounded=0;exitX=0.5;exitY=0;exitDx=0;exitDy=0;" edge="1" parent="1" source="s5MU04aMFb_AqmO_KyF_-28">
          <mxGeometry width="50" height="50" relative="1" as="geometry">
            <mxPoint x="390" y="900" as="sourcePoint" />
            <mxPoint x="360" y="1030" as="targetPoint" />
          </mxGeometry>
        </mxCell>
        <mxCell id="4O-tMVkyEJ5yS-pgDYUd-69" value="" style="endArrow=classic;html=1;rounded=0;" edge="1" parent="1">
          <mxGeometry width="50" height="50" relative="1" as="geometry">
            <mxPoint x="100" y="1010" as="sourcePoint" />
            <mxPoint x="100" y="1020" as="targetPoint" />
          </mxGeometry>
        </mxCell>
        <mxCell id="4O-tMVkyEJ5yS-pgDYUd-70" value="" style="endArrow=classic;html=1;rounded=0;exitX=0.5;exitY=0;exitDx=0;exitDy=0;" edge="1" parent="1" source="s5MU04aMFb_AqmO_KyF_-27">
          <mxGeometry width="50" height="50" relative="1" as="geometry">
            <mxPoint x="390" y="900" as="sourcePoint" />
            <mxPoint x="100" y="1020" as="targetPoint" />
          </mxGeometry>
        </mxCell>
        <mxCell id="4O-tMVkyEJ5yS-pgDYUd-71" value="" style="endArrow=none;html=1;rounded=0;" edge="1" parent="1">
          <mxGeometry width="50" height="50" relative="1" as="geometry">
            <mxPoint x="600" y="1110" as="sourcePoint" />
            <mxPoint x="600" y="1010" as="targetPoint" />
          </mxGeometry>
        </mxCell>
        <mxCell id="4O-tMVkyEJ5yS-pgDYUd-72" value="" style="endArrow=classic;html=1;rounded=0;" edge="1" parent="1">
          <mxGeometry width="50" height="50" relative="1" as="geometry">
            <mxPoint x="600" y="1040" as="sourcePoint" />
            <mxPoint x="640" y="1040" as="targetPoint" />
          </mxGeometry>
        </mxCell>
        <mxCell id="4O-tMVkyEJ5yS-pgDYUd-73" value="" style="endArrow=classic;html=1;rounded=0;" edge="1" parent="1">
          <mxGeometry width="50" height="50" relative="1" as="geometry">
            <mxPoint x="680" y="1040" as="sourcePoint" />
            <mxPoint x="640" y="1040" as="targetPoint" />
          </mxGeometry>
        </mxCell>
        <mxCell id="4O-tMVkyEJ5yS-pgDYUd-74" value="" style="endArrow=classic;html=1;rounded=0;" edge="1" parent="1">
          <mxGeometry width="50" height="50" relative="1" as="geometry">
            <mxPoint x="560" y="1010" as="sourcePoint" />
            <mxPoint x="520" y="1010" as="targetPoint" />
          </mxGeometry>
        </mxCell>
        <mxCell id="4O-tMVkyEJ5yS-pgDYUd-75" value="" style="endArrow=classic;html=1;rounded=0;" edge="1" parent="1">
          <mxGeometry width="50" height="50" relative="1" as="geometry">
            <mxPoint x="440" y="1010" as="sourcePoint" />
            <mxPoint x="520" y="1010" as="targetPoint" />
          </mxGeometry>
        </mxCell>
        <mxCell id="4O-tMVkyEJ5yS-pgDYUd-76" value="" style="endArrow=classic;html=1;rounded=0;" edge="1" parent="1">
          <mxGeometry width="50" height="50" relative="1" as="geometry">
            <mxPoint x="600" y="1040" as="sourcePoint" />
            <mxPoint x="600" y="1060" as="targetPoint" />
          </mxGeometry>
        </mxCell>
        <mxCell id="4O-tMVkyEJ5yS-pgDYUd-77" value="" style="endArrow=classic;html=1;rounded=0;" edge="1" parent="1">
          <mxGeometry width="50" height="50" relative="1" as="geometry">
            <mxPoint x="600" y="1110" as="sourcePoint" />
            <mxPoint x="600" y="1060" as="targetPoint" />
          </mxGeometry>
        </mxCell>
        <mxCell id="4O-tMVkyEJ5yS-pgDYUd-78" value="" style="endArrow=classic;html=1;rounded=0;" edge="1" parent="1">
          <mxGeometry width="50" height="50" relative="1" as="geometry">
            <mxPoint x="400" y="400" as="sourcePoint" />
            <mxPoint x="400" y="200" as="targetPoint" />
          </mxGeometry>
        </mxCell>
        <mxCell id="4O-tMVkyEJ5yS-pgDYUd-79" value="" style="endArrow=classic;html=1;rounded=0;" edge="1" parent="1">
          <mxGeometry width="50" height="50" relative="1" as="geometry">
            <mxPoint x="400" y="150" as="sourcePoint" />
            <mxPoint x="400" y="200" as="targetPoint" />
          </mxGeometry>
        </mxCell>
      </root>
    </mxGraphModel>
  </diagram>
</mxfile>
